<?xml version="1.0" encoding="UTF-8" standalone="no"?>
<!-- Created with Inkscape (http://www.inkscape.org/) -->

<svg
   xmlns:dc="http://purl.org/dc/elements/1.1/"
   xmlns:cc="http://creativecommons.org/ns#"
   xmlns:rdf="http://www.w3.org/1999/02/22-rdf-syntax-ns#"
   xmlns:svg="http://www.w3.org/2000/svg"
   xmlns="http://www.w3.org/2000/svg"
   xmlns:sodipodi="http://sodipodi.sourceforge.net/DTD/sodipodi-0.dtd"
   xmlns:inkscape="http://www.inkscape.org/namespaces/inkscape"
   width="44.382946"
   height="50.318943"
   id="svg2"
   version="1.1"
   inkscape:version="0.48.2 r9819"
   sodipodi:docname="asa.svg">
  <defs
     id="defs4" />
  <sodipodi:namedview
     id="base"
     pagecolor="#ffffff"
     bordercolor="#666666"
     borderopacity="1.0"
     inkscape:pageopacity="0.0"
     inkscape:pageshadow="2"
     inkscape:zoom="0.7"
     inkscape:cx="-23.988627"
     inkscape:cy="51.198332"
     inkscape:document-units="px"
     inkscape:current-layer="layer1"
     showgrid="false"
     inkscape:window-width="932"
     inkscape:window-height="645"
     inkscape:window-x="0"
     inkscape:window-y="0"
     inkscape:window-maximized="0"
     fit-margin-left="5"
     fit-margin-top="5"
     fit-margin-right="5"
     fit-margin-bottom="5" />
  <metadata
     id="metadata7">
    <rdf:RDF>
      <cc:Work
         rdf:about="">
        <dc:format>image/svg+xml</dc:format>
        <dc:type
           rdf:resource="http://purl.org/dc/dcmitype/StillImage" />
        <dc:title></dc:title>
      </cc:Work>
    </rdf:RDF>
  </metadata>
  <g
     inkscape:label="Layer 1"
     inkscape:groupmode="layer"
     id="layer1"
     transform="translate(-148.9114,-933.69355)">
    <path
       sodipodi:type="arc"
       style="fill:#d63737;fill-opacity:1;stroke:#000000;stroke-width:2.32288504;stroke-linecap:round;stroke-miterlimit:4;stroke-opacity:1;stroke-dasharray:none;stroke-dashoffset:0"
       id="path3039"
       sodipodi:cx="180.98215"
       sodipodi:cy="951.82648"
       sodipodi:rx="6.1607141"
       sodipodi:ry="5.3571429"
       d="m 187.14286,951.82648 c 0,2.95867 -2.75824,5.35714 -6.16071,5.35714 -3.40247,0 -6.16072,-2.39847 -6.16072,-5.35714 0,-2.95867 2.75825,-5.35715 6.16072,-5.35715 3.40247,0 6.16071,2.39848 6.16071,5.35715 z"
       transform="matrix(1.1204901,0,0,1.371897,-25.288708,-358.17783)" />
    <path
       sodipodi:type="arc"
       style="fill:#375dd6;fill-opacity:1;stroke:#000000;stroke-width:2.36724782;stroke-linecap:round;stroke-miterlimit:4;stroke-opacity:1;stroke-dasharray:none;stroke-dashoffset:0"
       id="path3039-7"
       sodipodi:cx="180.98215"
       sodipodi:cy="951.82648"
       sodipodi:rx="6.1607141"
       sodipodi:ry="5.3571429"
       d="m 187.14286,951.82648 c 0,2.95867 -2.75824,5.35714 -6.16071,5.35714 -3.40247,0 -6.16072,-2.39847 -6.16072,-5.35714 0,-2.95867 2.75825,-5.35715 6.16072,-5.35715 3.40247,0 6.16071,2.39848 6.16071,5.35715 z"
       transform="matrix(0.98534326,0,0,1.206427,-17.168825,-184.84007)" />
    <path
       sodipodi:type="arc"
       style="fill:#6ad637;fill-opacity:1;stroke:#000000;stroke-width:2.36724782;stroke-linecap:round;stroke-miterlimit:4;stroke-opacity:1;stroke-dasharray:none;stroke-dashoffset:0"
       id="path3039-7-3"
       sodipodi:cx="180.98215"
       sodipodi:cy="951.82648"
       sodipodi:rx="6.1607141"
       sodipodi:ry="5.3571429"
       d="m 187.14286,951.82648 c 0,2.95867 -2.75824,5.35714 -6.16071,5.35714 -3.40247,0 -6.16072,-2.39847 -6.16072,-5.35714 0,-2.95867 2.75825,-5.35715 6.16072,-5.35715 3.40247,0 6.16071,2.39848 6.16071,5.35715 z"
       transform="matrix(0.98534326,0,0,1.206427,2.7418903,-177.19698)" />
    <path
       style="fill:none;stroke:#000000;stroke-width:2.4000001;stroke-linecap:butt;stroke-linejoin:miter;stroke-miterlimit:4;stroke-opacity:1;stroke-dasharray:none"
       d="m 167.27811,961.04719 5.56635,-1.06245 2.15554,-5.4797"
       id="path3845"
       inkscape:connector-curvature="0"
       sodipodi:nodetypes="ccc" />
    <path
       style="fill:none;stroke:#000000;stroke-width:2.4000001;stroke-linecap:butt;stroke-linejoin:miter;stroke-miterlimit:4;stroke-opacity:1;stroke-dasharray:none"
       d="m 172.59192,959.80617 4.37237,5.7703"
       id="path3847"
       inkscape:connector-curvature="0"
       sodipodi:nodetypes="cc" />
  </g>
</svg>
